<?xml version="1.0" standalone="no"?>
<!DOCTYPE svg PUBLIC "-//W3C//DTD SVG 20010904//EN"
 "http://www.w3.org/TR/2001/REC-SVG-20010904/DTD/svg10.dtd">
<svg version="1.0" xmlns="http://www.w3.org/2000/svg"
 width="192.000000pt" height="192.000000pt" viewBox="0 0 192.000000 192.000000"
 preserveAspectRatio="xMidYMid meet">

<g transform="translate(0.000000,192.000000) scale(0.100000,-0.100000)"
fill="#000000" stroke="none">
<path d="M0 960 l0 -960 960 0 960 0 0 960 0 960 -960 0 -960 0 0 -960z m1480
-45 l0 -695 -182 2 -183 3 0 110 0 110 65 5 65 5 3 458 2 457 -242 -2 -243 -3
-3 -47 -3 -48 -115 0 -114 0 0 163 c0 90 3 167 7 170 3 4 217 7 475 7 l468 0
0 -695z m-718 -117 l3 -343 120 -5 120 -5 0 -110 0 -110 -237 -3 -238 -2 0
453 c0 250 3 457 7 460 3 4 55 7 115 7 l108 0 2 -342z"/>
</g>
</svg>
